PathFileType	4	(X/Y/Z)	pose_F01_0-92.trc
DataRate	CameraRate	NumFrames	NumMarkers	Units	OrigDataRate	OrigDataStartFrame	OrigNumFrames
30	30	7	21	m	30	39	92
Frame#	Time	CHip			RHip			RKnee			RAnkle			RBigToe			RSmallToe			RHeel			LHip			LKnee			LAnkle			LBigToe			LSmallToe			LHeel			Neck			Nose			RShoulder			RElbow			RWrist			LShoulder			LElbow			LWrist			
		X1	Y1	Z1	X2	Y2	Z2	X3	Y3	Z3	X4	Y4	Z4	X5	Y5	Z5	X6	Y6	Z6	X7	Y7	Z7	X8	Y8	Z8	X9	Y9	Z9	X10	Y10	Z10	X11	Y11	Z11	X12	Y12	Z12	X13	Y13	Z13	X14	Y14	Z14	X15	Y15	Z15	X16	Y16	Z16	X17	Y17	Z17	X18	Y18	Z18	X19	Y19	Z19	X20	Y20	Z20	X21	Y21	Z21	
39	1.3	-0.2628274341155556	1.8923366982452194	-0.6081726843555816	-0.27933152194492517	1.8903005870741032	-0.5439245302047518	-0.2845250009480527	1.740922130104861	-0.49704934337924445													-0.24416089651744768	1.8966724125169543	-0.6694682580041716	-0.23887846471008767	1.7397865062852034	-0.6689666241427493	-0.24316044638965092	1.634386246599319	-0.7072712674426873	-0.2429091477787775	1.590882945094082	-0.6697576786801516	-0.2358600737632996	1.5968344286126286	-0.7064792203637514	-0.24677968524297783	1.6121225823539778	-0.7152477559332594	-0.26477096835779135	2.0661126047338976	-0.6258493383100132	-0.24980071073449767	2.1181000697124235	-0.5816817917731801	-0.29045596007674074	2.0577748931495057	-0.5654044378327674	-0.2859553173869595	1.9614678100828744	-0.4622507521188886	-0.2888110959245813	1.875915599457217	-0.42663412892900826	-0.23462157257271227	2.0760687294661557	-0.6855882193533769	-0.2012800524301032	2.048994079594609	-0.6229418510637305	-0.1696633441682436	2.0355064334305224	-0.5302150617043451
40	1.3333333333333333	-0.26397935301024733	1.8997615911415608	-0.6211326313776868	-0.2834927032724528	1.8977784768849384	-0.5667144408966834	-0.2845250009480527	1.740922130104861	-0.49704934337924445													-0.24840150373839687	1.9042457877248635	-0.67471474098983	-0.24027231077117622	1.7429290914496363	-0.6769114698938373	-0.24316044638965092	1.634386246599319	-0.7072712674426873	-0.2429091477787775	1.590882945094082	-0.6697576786801516	-0.2358600737632996	1.5968344286126286	-0.7064792203637514	-0.24677968524297783	1.6121225823539778	-0.7152477559332594	-0.2665920580532711	2.0686359695447556	-0.6323339550846735	-0.2526692305444439	2.1206466680364553	-0.5829081727857002	-0.29127714511588804	2.0604739488955857	-0.5771869833026978	-0.2859553173869595	1.9614678100828744	-0.4622507521188886	-0.2888110959245813	1.875915599457217	-0.42663412892900826	-0.23558694963491944	2.0773430264995474	-0.6890562129591025	-0.20053561252545754	2.043940313384235	-0.6203002568620667	-0.17411395883839048	2.0252581017346594	-0.5246543112544627
41	1.3666666666666667	-0.266790306524946	1.9006529566334018	-0.6221833629089893	-0.2854173130799024	1.898268786426968	-0.5647139735560148	-0.2845250009480527	1.740922130104861	-0.49704934337924445													-0.24902584479409895	1.9069865658691583	-0.6779038108512577	-0.24254645966839694	1.7460537157848712	-0.675695394587875	-0.24316044638965092	1.634386246599319	-0.7072712674426873	-0.2429091477787775	1.590882945094082	-0.6697576786801516	-0.2358600737632996	1.5968344286126286	-0.7064792203637514	-0.24677968524297783	1.6121225823539778	-0.7152477559332594	-0.2685591329253631	2.072143810845521	-0.6305553432185456	-0.2527638934236232	2.120441970093305	-0.5822353601759342	-0.2932729554032185	2.0618170910160556	-0.5748870433911982	-0.2859553173869595	1.9614678100828744	-0.4622507521188886	-0.2888110959245813	1.875915599457217	-0.42663412892900826	-0.2394148124309327	2.0812472634735104	-0.6936185096869457	-0.20961197647293012	2.047042802300838	-0.623206635705567	-0.18026974492134615	2.024016489027767	-0.5265095557586535
42	1.4	-0.26639757008619636	1.9047865799956272	-0.6223362104014515	-0.2840449496924664	1.9030382382703812	-0.5617388387613105	-0.2845250009480527	1.740922130104861	-0.49704934337924445													-0.2509141049780106	1.910202724582953	-0.6759193314501231	-0.2448206085656177	1.7491783401201062	-0.6744793192819125	-0.24316044638965092	1.634386246599319	-0.7072712674426873	-0.2429091477787775	1.590882945094082	-0.6697576786801516	-0.2358600737632996	1.5968344286126286	-0.7064792203637514	-0.24677968524297783	1.6121225823539778	-0.7152477559332594	-0.270535711852598	2.073707358354272	-0.6281629594149182	-0.255787853693824	2.1194343623571563	-0.5831150211783267	-0.2938887328365134	2.0639721455660487	-0.5688178114564949	-0.2859553173869595	1.9614678100828744	-0.4622507521188886	-0.2888110959245813	1.875915599457217	-0.42663412892900826	-0.24372253868337884	2.0823878925387107	-0.6891465293699376	-0.2132427328279718	2.047945526207079	-0.6354813132401756	-0.18759568317715725	2.027061493755417	-0.5523049991677291
43	1.4333333333333333	-0.27192805867174646	1.9031735742623828	-0.6126476863082663	-0.28835722426641436	1.8994318015029914	-0.5569711023876815	-0.2845250009480527	1.740922130104861	-0.49704934337924445													-0.2531643737407169	1.9076083585365653	-0.6732274985875915	-0.2470947574628384	1.752302964455341	-0.6732632439759502	-0.24316044638965092	1.634386246599319	-0.7072712674426873	-0.2429091477787775	1.590882945094082	-0.6697576786801516	-0.2358600737632996	1.5968344286126286	-0.7064792203637514	-0.24677968524297783	1.6121225823539778	-0.7152477559332594	-0.272575907650633	2.0707958362185273	-0.6251026436032431	-0.2579011190068456	2.1169053509501476	-0.580578667447129	-0.2968187982423091	2.0618937099026247	-0.5606347455116846	-0.2859553173869595	1.9614678100828744	-0.4622507521188886	-0.2888110959245813	1.875915599457217	-0.42663412892900826	-0.24579715734682944	2.0800442423075394	-0.6860250272879009	-0.21476287770330058	2.0472999798096745	-0.6500863349295903	-0.1863597647612863	2.029731016986204	-0.558329389797219
44	1.4666666666666666	-0.27595094047799296	1.9057822088178367	-0.6083224823411763	-0.2903188546700636	1.9025876224664664	-0.5551461745102603	-0.2845250009480527	1.740922130104861	-0.49704934337924445													-0.2574139528437083	1.9082778702209846	-0.6687893229782923	-0.24936890636005915	1.755427588790576	-0.6720471686699877	-0.24316044638965092	1.634386246599319	-0.7072712674426873	-0.2429091477787775	1.590882945094082	-0.6697576786801516	-0.2358600737632996	1.5968344286126286	-0.7064792203637514	-0.24677968524297783	1.6121225823539778	-0.7152477559332594	-0.27696536390217963	2.0674610206789437	-0.6202667485454093	-0.2632526162436211	2.111596646734498	-0.5705174810846395	-0.3014036718826186	2.0576554342725104	-0.556443204820417	-0.2859553173869595	1.9614678100828744	-0.4622507521188886	-0.2888110959245813	1.875915599457217	-0.42663412892900826	-0.25024672589246233	2.076295843351001	-0.6813022280943201	-0.20980619006641993	2.0422815087614574	-0.6514635022034565	-0.18912252777705624	2.0304536568379383	-0.5586596945104424
45	1.5	-0.2825663005353894	1.9042038902388712	-0.6013451650115996	-0.2987956957748319	1.8995450585830738	-0.5458515662962503	-0.2845250009480527	1.740922130104861	-0.49704934337924445													-0.26759131649988943	1.9061315957600014	-0.6543434603383376	-0.25164305525727987	1.758552213125811	-0.6708310933640254	-0.24316044638965092	1.634386246599319	-0.7072712674426873	-0.2429091477787775	1.590882945094082	-0.6697576786801516	-0.2358600737632996	1.5968344286126286	-0.7064792203637514	-0.24677968524297783	1.6121225823539778	-0.7152477559332594	-0.2865712964685757	2.0643397819067726	-0.6061698540847869	-0.27037948886109586	2.108033594254687	-0.5659358429332133	-0.3086284990756149	2.0566716629858446	-0.5448740787801575	-0.2859553173869595	1.9614678100828744	-0.4622507521188886	-0.2888110959245813	1.875915599457217	-0.42663412892900826	-0.2610840016118616	2.074960102765882	-0.6704210831341086	-0.21700341488312272	2.0432588332611834	-0.6470370418081163	-0.19207921214425647	2.0286538579275692	-0.5682616907601792
